<mxfile host="app.diagrams.net" modified="2022-01-03T11:40:14.551Z" agent="5.0 (Windows NT 10.0; WOW64) AppleWebKit/537.36 (KHTML, like Gecko) Chrome/70.0.3538.25 Safari/537.36 Core/1.70.3877.400 QQBrowser/10.8.4506.400" etag="G1tLUsy0Md2G99njxUT2" version="16.1.2" type="github">
  <diagram id="26mOtvKbW0ZpyLBuYgCi" name="第 1 页">
    <mxGraphModel dx="1698" dy="899" grid="1" gridSize="10" guides="1" tooltips="1" connect="1" arrows="1" fold="1" page="1" pageScale="1" pageWidth="827" pageHeight="1169" math="0" shadow="0">
      <root>
        <mxCell id="0" />
        <mxCell id="1" parent="0" />
        <mxCell id="E8vI-PrKXHrXM8HTYCh4-74" style="edgeStyle=orthogonalEdgeStyle;rounded=0;orthogonalLoop=1;jettySize=auto;html=1;fontSize=22;" edge="1" parent="1" source="E8vI-PrKXHrXM8HTYCh4-58">
          <mxGeometry relative="1" as="geometry">
            <mxPoint x="110" y="735" as="targetPoint" />
          </mxGeometry>
        </mxCell>
        <mxCell id="E8vI-PrKXHrXM8HTYCh4-58" value="I&amp;nbsp;love&amp;nbsp;machine&amp;nbsp;learning,but..." style="text;html=1;resizable=0;autosize=1;align=center;verticalAlign=middle;points=[];fillColor=none;strokeColor=none;rounded=0;fontSize=22;rotation=90;" vertex="1" parent="1">
          <mxGeometry x="-100" y="720" width="300" height="30" as="geometry" />
        </mxCell>
        <mxCell id="E8vI-PrKXHrXM8HTYCh4-59" value="我爱机器学习,但是..." style="text;html=1;resizable=0;autosize=1;align=center;verticalAlign=middle;points=[];fillColor=none;strokeColor=none;rounded=0;fontSize=22;rotation=90;" vertex="1" parent="1">
          <mxGeometry x="670" y="700" width="220" height="30" as="geometry" />
        </mxCell>
        <mxCell id="E8vI-PrKXHrXM8HTYCh4-75" value="" style="group" vertex="1" connectable="0" parent="1">
          <mxGeometry x="120" y="600" width="120" height="280" as="geometry" />
        </mxCell>
        <mxCell id="E8vI-PrKXHrXM8HTYCh4-60" value="" style="group;rotation=90;" vertex="1" connectable="0" parent="E8vI-PrKXHrXM8HTYCh4-75">
          <mxGeometry x="40" y="-40" width="40" height="120" as="geometry" />
        </mxCell>
        <mxCell id="E8vI-PrKXHrXM8HTYCh4-3" value="" style="whiteSpace=wrap;html=1;aspect=fixed;direction=west;rotation=90;" vertex="1" parent="E8vI-PrKXHrXM8HTYCh4-60">
          <mxGeometry x="40" y="40" width="40" height="40" as="geometry" />
        </mxCell>
        <mxCell id="E8vI-PrKXHrXM8HTYCh4-4" value="" style="whiteSpace=wrap;html=1;aspect=fixed;direction=west;rotation=90;" vertex="1" parent="E8vI-PrKXHrXM8HTYCh4-60">
          <mxGeometry x="-40" y="40" width="40" height="40" as="geometry" />
        </mxCell>
        <mxCell id="E8vI-PrKXHrXM8HTYCh4-2" value="" style="whiteSpace=wrap;html=1;aspect=fixed;direction=west;rotation=90;" vertex="1" parent="E8vI-PrKXHrXM8HTYCh4-60">
          <mxGeometry y="40" width="40" height="40" as="geometry" />
        </mxCell>
        <mxCell id="E8vI-PrKXHrXM8HTYCh4-61" value="" style="group;rotation=90;" vertex="1" connectable="0" parent="E8vI-PrKXHrXM8HTYCh4-75">
          <mxGeometry x="40" y="40" width="40" height="120" as="geometry" />
        </mxCell>
        <mxCell id="E8vI-PrKXHrXM8HTYCh4-62" value="" style="whiteSpace=wrap;html=1;aspect=fixed;direction=west;rotation=90;" vertex="1" parent="E8vI-PrKXHrXM8HTYCh4-61">
          <mxGeometry x="40" y="40" width="40" height="40" as="geometry" />
        </mxCell>
        <mxCell id="E8vI-PrKXHrXM8HTYCh4-63" value="" style="whiteSpace=wrap;html=1;aspect=fixed;direction=west;rotation=90;" vertex="1" parent="E8vI-PrKXHrXM8HTYCh4-61">
          <mxGeometry x="-40" y="40" width="40" height="40" as="geometry" />
        </mxCell>
        <mxCell id="E8vI-PrKXHrXM8HTYCh4-64" value="" style="whiteSpace=wrap;html=1;aspect=fixed;direction=west;rotation=90;" vertex="1" parent="E8vI-PrKXHrXM8HTYCh4-61">
          <mxGeometry y="40" width="40" height="40" as="geometry" />
        </mxCell>
        <mxCell id="E8vI-PrKXHrXM8HTYCh4-66" value="" style="group;rotation=90;" vertex="1" connectable="0" parent="E8vI-PrKXHrXM8HTYCh4-75">
          <mxGeometry x="40" y="120" width="40" height="120" as="geometry" />
        </mxCell>
        <mxCell id="E8vI-PrKXHrXM8HTYCh4-67" value="" style="whiteSpace=wrap;html=1;aspect=fixed;direction=west;rotation=90;" vertex="1" parent="E8vI-PrKXHrXM8HTYCh4-66">
          <mxGeometry x="40" y="40" width="40" height="40" as="geometry" />
        </mxCell>
        <mxCell id="E8vI-PrKXHrXM8HTYCh4-68" value="" style="whiteSpace=wrap;html=1;aspect=fixed;direction=west;rotation=90;" vertex="1" parent="E8vI-PrKXHrXM8HTYCh4-66">
          <mxGeometry x="-40" y="40" width="40" height="40" as="geometry" />
        </mxCell>
        <mxCell id="E8vI-PrKXHrXM8HTYCh4-69" value="" style="whiteSpace=wrap;html=1;aspect=fixed;direction=west;rotation=90;" vertex="1" parent="E8vI-PrKXHrXM8HTYCh4-66">
          <mxGeometry y="40" width="40" height="40" as="geometry" />
        </mxCell>
        <mxCell id="E8vI-PrKXHrXM8HTYCh4-20" value="&lt;font style=&quot;font-size: 22px&quot;&gt;...&lt;/font&gt;" style="text;html=1;resizable=0;autosize=1;align=center;verticalAlign=middle;points=[];fillColor=none;strokeColor=none;rounded=0;strokeWidth=2;rotation=90;" vertex="1" parent="E8vI-PrKXHrXM8HTYCh4-75">
          <mxGeometry x="30" y="210" width="30" height="20" as="geometry" />
        </mxCell>
        <mxCell id="E8vI-PrKXHrXM8HTYCh4-70" value="" style="group;rotation=90;" vertex="1" connectable="0" parent="E8vI-PrKXHrXM8HTYCh4-75">
          <mxGeometry x="40" y="200" width="40" height="120" as="geometry" />
        </mxCell>
        <mxCell id="E8vI-PrKXHrXM8HTYCh4-71" value="" style="whiteSpace=wrap;html=1;aspect=fixed;direction=west;rotation=90;" vertex="1" parent="E8vI-PrKXHrXM8HTYCh4-70">
          <mxGeometry x="40" y="40" width="40" height="40" as="geometry" />
        </mxCell>
        <mxCell id="E8vI-PrKXHrXM8HTYCh4-72" value="" style="whiteSpace=wrap;html=1;aspect=fixed;direction=west;rotation=90;" vertex="1" parent="E8vI-PrKXHrXM8HTYCh4-70">
          <mxGeometry x="-40" y="40" width="40" height="40" as="geometry" />
        </mxCell>
        <mxCell id="E8vI-PrKXHrXM8HTYCh4-73" value="" style="whiteSpace=wrap;html=1;aspect=fixed;direction=west;rotation=90;" vertex="1" parent="E8vI-PrKXHrXM8HTYCh4-70">
          <mxGeometry y="40" width="40" height="40" as="geometry" />
        </mxCell>
        <mxCell id="E8vI-PrKXHrXM8HTYCh4-78" value="self-attention" style="rounded=1;whiteSpace=wrap;html=1;fontSize=22;arcSize=23;rotation=90;" vertex="1" parent="1">
          <mxGeometry x="310" y="685" width="160" height="100" as="geometry" />
        </mxCell>
        <mxCell id="E8vI-PrKXHrXM8HTYCh4-79" value="" style="group" vertex="1" connectable="0" parent="1">
          <mxGeometry x="560" y="600" width="120" height="280" as="geometry" />
        </mxCell>
        <mxCell id="E8vI-PrKXHrXM8HTYCh4-80" value="" style="group;rotation=90;" vertex="1" connectable="0" parent="E8vI-PrKXHrXM8HTYCh4-79">
          <mxGeometry x="40" y="-40" width="40" height="120" as="geometry" />
        </mxCell>
        <mxCell id="E8vI-PrKXHrXM8HTYCh4-81" value="" style="whiteSpace=wrap;html=1;aspect=fixed;direction=west;rotation=90;" vertex="1" parent="E8vI-PrKXHrXM8HTYCh4-80">
          <mxGeometry x="40" y="40" width="40" height="40" as="geometry" />
        </mxCell>
        <mxCell id="E8vI-PrKXHrXM8HTYCh4-82" value="" style="whiteSpace=wrap;html=1;aspect=fixed;direction=west;rotation=90;" vertex="1" parent="E8vI-PrKXHrXM8HTYCh4-80">
          <mxGeometry x="-40" y="40" width="40" height="40" as="geometry" />
        </mxCell>
        <mxCell id="E8vI-PrKXHrXM8HTYCh4-83" value="" style="whiteSpace=wrap;html=1;aspect=fixed;direction=west;rotation=90;" vertex="1" parent="E8vI-PrKXHrXM8HTYCh4-80">
          <mxGeometry y="40" width="40" height="40" as="geometry" />
        </mxCell>
        <mxCell id="E8vI-PrKXHrXM8HTYCh4-84" value="" style="group;rotation=90;" vertex="1" connectable="0" parent="E8vI-PrKXHrXM8HTYCh4-79">
          <mxGeometry x="40" y="40" width="40" height="120" as="geometry" />
        </mxCell>
        <mxCell id="E8vI-PrKXHrXM8HTYCh4-85" value="" style="whiteSpace=wrap;html=1;aspect=fixed;direction=west;rotation=90;" vertex="1" parent="E8vI-PrKXHrXM8HTYCh4-84">
          <mxGeometry x="40" y="40" width="40" height="40" as="geometry" />
        </mxCell>
        <mxCell id="E8vI-PrKXHrXM8HTYCh4-86" value="" style="whiteSpace=wrap;html=1;aspect=fixed;direction=west;rotation=90;" vertex="1" parent="E8vI-PrKXHrXM8HTYCh4-84">
          <mxGeometry x="-40" y="40" width="40" height="40" as="geometry" />
        </mxCell>
        <mxCell id="E8vI-PrKXHrXM8HTYCh4-87" value="" style="whiteSpace=wrap;html=1;aspect=fixed;direction=west;rotation=90;" vertex="1" parent="E8vI-PrKXHrXM8HTYCh4-84">
          <mxGeometry y="40" width="40" height="40" as="geometry" />
        </mxCell>
        <mxCell id="E8vI-PrKXHrXM8HTYCh4-88" value="" style="group;rotation=90;" vertex="1" connectable="0" parent="E8vI-PrKXHrXM8HTYCh4-79">
          <mxGeometry x="40" y="120" width="40" height="120" as="geometry" />
        </mxCell>
        <mxCell id="E8vI-PrKXHrXM8HTYCh4-89" value="" style="whiteSpace=wrap;html=1;aspect=fixed;direction=west;rotation=90;" vertex="1" parent="E8vI-PrKXHrXM8HTYCh4-88">
          <mxGeometry x="40" y="40" width="40" height="40" as="geometry" />
        </mxCell>
        <mxCell id="E8vI-PrKXHrXM8HTYCh4-90" value="" style="whiteSpace=wrap;html=1;aspect=fixed;direction=west;rotation=90;" vertex="1" parent="E8vI-PrKXHrXM8HTYCh4-88">
          <mxGeometry x="-40" y="40" width="40" height="40" as="geometry" />
        </mxCell>
        <mxCell id="E8vI-PrKXHrXM8HTYCh4-91" value="" style="whiteSpace=wrap;html=1;aspect=fixed;direction=west;rotation=90;" vertex="1" parent="E8vI-PrKXHrXM8HTYCh4-88">
          <mxGeometry y="40" width="40" height="40" as="geometry" />
        </mxCell>
        <mxCell id="E8vI-PrKXHrXM8HTYCh4-92" value="&lt;font style=&quot;font-size: 22px&quot;&gt;...&lt;/font&gt;" style="text;html=1;resizable=0;autosize=1;align=center;verticalAlign=middle;points=[];fillColor=none;strokeColor=none;rounded=0;strokeWidth=2;rotation=90;" vertex="1" parent="E8vI-PrKXHrXM8HTYCh4-79">
          <mxGeometry x="30" y="210" width="30" height="20" as="geometry" />
        </mxCell>
        <mxCell id="E8vI-PrKXHrXM8HTYCh4-93" value="" style="group;rotation=90;" vertex="1" connectable="0" parent="E8vI-PrKXHrXM8HTYCh4-79">
          <mxGeometry x="40" y="200" width="40" height="120" as="geometry" />
        </mxCell>
        <mxCell id="E8vI-PrKXHrXM8HTYCh4-94" value="" style="whiteSpace=wrap;html=1;aspect=fixed;direction=west;rotation=90;" vertex="1" parent="E8vI-PrKXHrXM8HTYCh4-93">
          <mxGeometry x="40" y="40" width="40" height="40" as="geometry" />
        </mxCell>
        <mxCell id="E8vI-PrKXHrXM8HTYCh4-95" value="" style="whiteSpace=wrap;html=1;aspect=fixed;direction=west;rotation=90;" vertex="1" parent="E8vI-PrKXHrXM8HTYCh4-93">
          <mxGeometry x="-40" y="40" width="40" height="40" as="geometry" />
        </mxCell>
        <mxCell id="E8vI-PrKXHrXM8HTYCh4-96" value="" style="whiteSpace=wrap;html=1;aspect=fixed;direction=west;rotation=90;" vertex="1" parent="E8vI-PrKXHrXM8HTYCh4-93">
          <mxGeometry y="40" width="40" height="40" as="geometry" />
        </mxCell>
        <mxCell id="E8vI-PrKXHrXM8HTYCh4-100" value="" style="shape=flexArrow;endArrow=classic;html=1;rounded=0;fontSize=22;entryX=0.5;entryY=1;entryDx=0;entryDy=0;" edge="1" parent="1">
          <mxGeometry width="50" height="50" relative="1" as="geometry">
            <mxPoint x="470" y="735" as="sourcePoint" />
            <mxPoint x="530" y="734.5" as="targetPoint" />
          </mxGeometry>
        </mxCell>
        <mxCell id="E8vI-PrKXHrXM8HTYCh4-102" value="" style="shape=flexArrow;endArrow=classic;html=1;rounded=0;fontSize=22;entryX=0.5;entryY=1;entryDx=0;entryDy=0;" edge="1" parent="1">
          <mxGeometry width="50" height="50" relative="1" as="geometry">
            <mxPoint x="270" y="735" as="sourcePoint" />
            <mxPoint x="330" y="734.5" as="targetPoint" />
          </mxGeometry>
        </mxCell>
        <mxCell id="E8vI-PrKXHrXM8HTYCh4-104" value="" style="endArrow=classic;html=1;rounded=0;fontSize=22;" edge="1" parent="1">
          <mxGeometry width="50" height="50" relative="1" as="geometry">
            <mxPoint x="700" y="740" as="sourcePoint" />
            <mxPoint x="750" y="740" as="targetPoint" />
          </mxGeometry>
        </mxCell>
        <mxCell id="E8vI-PrKXHrXM8HTYCh4-105" value="&lt;font color=&quot;#ff9999&quot;&gt;tokens&lt;/font&gt;" style="text;html=1;resizable=0;autosize=1;align=center;verticalAlign=middle;points=[];fillColor=none;strokeColor=none;rounded=0;fontSize=22;" vertex="1" parent="1">
          <mxGeometry x="140" y="545" width="80" height="30" as="geometry" />
        </mxCell>
        <mxCell id="E8vI-PrKXHrXM8HTYCh4-106" value="&lt;font color=&quot;#ff9999&quot;&gt;tokens&lt;/font&gt;" style="text;html=1;resizable=0;autosize=1;align=center;verticalAlign=middle;points=[];fillColor=none;strokeColor=none;rounded=0;fontSize=22;" vertex="1" parent="1">
          <mxGeometry x="580" y="545" width="80" height="30" as="geometry" />
        </mxCell>
      </root>
    </mxGraphModel>
  </diagram>
</mxfile>
